PathFileType	4	(X/Y/Z)	C:\Users\Graham\Documents\MATLAB\MOtoNMS_v2_2\MyData\ElaboratedData\S1\17-05-18\dynamicElaborations\rightStSt\\NE2\NE2.trc
DataRate	CameraRate	NumFrames	NumMarkers	Units	OrigDataRate	DataStartFrame
100	100	6	29	mm	100	4
Frame#	Time	V_Sacral			R_ASIS			L_ASIS			R_Knee_Lat			R_Thigh_Upper			R_Thigh_Front			R_Thigh_Rear			L_Knee_Lat			L_Thigh_Upper			L_Thigh_Front			L_Thigh_Rear			R_Ankle_Lat			R_Shank_Upper			R_Shank_Front			R_Shank_Rear			L_Ankle_Lat			L_Shank_Upper			L_Shank_Front			L_Shank_Rear			R_Heel			R_MTP1			R_MTP5			L_Heel			L_MTP1			L_MTP5			Clavicle			C7			R_Acromium			L_Acromium		
		X1	Y1	Z1	X2	Y2	Z2	X3	Y3	Z3	X4	Y4	Z4	X5	Y5	Z5	X6	Y6	Z6	X7	Y7	Z7	X8	Y8	Z8	X9	Y9	Z9	X10	Y10	Z10	X11	Y11	Z11	X12	Y12	Z12	X13	Y13	Z13	X14	Y14	Z14	X15	Y15	Z15	X16	Y16	Z16	X17	Y17	Z17	X18	Y18	Z18	X19	Y19	Z19	X20	Y20	Z20	X21	Y21	Z21	X22	Y22	Z22	X23	Y23	Z23	X24	Y24	Z24	X25	Y25	Z25	X26	Y26	Z26	X27	Y27	Z27	X28	Y28	Z28	X29	Y29	Z29	

109	1.080000	-92.869528	1060.415976	1.335743	93.976906	1039.836114	135.555386	116.066308	1033.715764	-94.190884	171.168773	557.642751	199.047111	141.115751	909.547808	172.419273	202.629854	800.776233	141.496911	165.404188	786.224653	207.940585	20.859216	525.589913	-128.531653	134.572604	854.149159	-121.034310	137.716073	738.126798	-67.163000	105.953768	732.259138	-146.898431	82.656245	138.865996	199.933152	187.959489	341.858120	180.135720	140.115822	239.044924	123.078209	132.311014	234.498128	204.212387	-101.072773	99.373179	-110.753168	18.762597	308.407598	-93.052501	-37.228194	204.895324	-43.920755	-40.365851	203.548231	-124.122520	4.917494	92.406644	140.674826	232.552442	74.069758	122.472197	221.336897	66.610603	197.929119	-177.044713	59.828564	-65.755330	57.979736	56.365345	-35.374225	41.240593	49.079504	-121.356624	125.576980	1457.559384	7.713235	-9.856669	1567.126053	-25.022629	40.605171	1493.873227	191.135140	106.388731	1480.063049	-211.145726	
110	1.090000	-93.510335	1059.626057	1.612448	93.148769	1038.792992	136.209169	115.603413	1032.619288	-93.580774	168.498881	555.943717	198.809703	139.565014	908.136272	173.040349	200.647006	799.116337	142.088940	162.870612	784.407462	208.636536	14.814797	525.052880	-128.224171	132.667798	852.585647	-120.601544	134.762617	736.587448	-66.553375	102.446794	730.949212	-146.276962	103.514277	132.762063	201.939231	196.670588	341.363166	181.088151	155.064456	235.693073	124.533333	147.512546	231.061370	205.737549	-110.326629	99.560751	-110.607000	11.012982	307.854983	-92.787965	-45.676089	204.793028	-43.795767	-48.811082	203.404246	-123.917055	28.698045	82.244153	142.610845	256.682710	75.041043	125.174085	245.815373	67.479133	200.667226	-186.414860	59.993833	-65.617808	48.605841	56.249345	-35.372272	31.832398	48.989015	-121.323130	125.051957	1456.505594	8.694697	-10.195334	1566.204618	-24.401136	39.348539	1492.712663	191.916524	106.781758	1479.314433	-210.124734	
111	1.100000	-94.002515	1058.753505	1.942349	92.456502	1037.594171	136.972250	115.230251	1031.454728	-92.871179	165.364787	553.947321	198.548240	137.868065	906.267577	173.881937	198.417042	796.888018	143.047726	159.772203	782.051628	209.521360	8.854542	524.518482	-127.909154	130.892475	850.964556	-120.104346	131.908408	735.006438	-65.886958	99.041991	729.626756	-145.554047	124.412245	127.844585	204.029702	204.988186	341.359785	182.022105	169.754090	233.172571	126.030538	162.489705	228.504877	207.325965	-119.564488	99.779535	-110.478187	3.300051	307.324228	-92.559092	-54.101237	204.693565	-43.675091	-57.227041	203.296149	-123.753008	52.567094	73.395805	144.833457	280.336981	77.339531	127.581812	269.927890	69.617913	203.125493	-195.779575	60.188990	-65.490836	39.237789	56.130844	-35.371875	22.421896	48.895633	-121.289253	124.557882	1455.368454	9.770525	-10.527505	1565.179438	-23.642756	38.197531	1491.477031	192.809962	107.107621	1478.496833	-209.004388	
112	1.110000	-94.337877	1057.787234	2.325438	91.911404	1036.246999	137.837010	114.960398	1030.215113	-92.068214	161.909864	551.738366	198.227040	136.083681	903.948690	174.950315	195.920913	794.066152	144.358062	156.164495	779.193065	210.564883	2.995432	523.976383	-127.584734	129.246671	849.272856	-119.539377	129.150322	733.374087	-65.163670	95.745802	728.283028	-144.712288	145.139149	124.223315	206.155594	212.869188	341.911641	182.888106	184.037782	231.562011	127.525275	177.103978	226.934618	208.933655	-128.793091	100.030205	-110.370814	-4.367611	306.809246	-92.362647	-62.510487	204.589143	-43.554321	-65.609550	203.220471	-123.628205	76.218742	65.991034	147.325580	303.273815	80.999768	129.589330	293.432529	73.078817	205.201388	-205.145075	60.422666	-65.382135	29.865347	56.007319	-35.366649	13.003164	48.798641	-121.256640	124.091534	1454.154988	10.947835	-10.856522	1564.054903	-22.739409	37.152467	1490.168678	193.824485	107.359335	1477.605540	-207.780637	
113	1.120000	-94.519986	1056.716037	2.767462	91.518805	1034.761393	138.791205	114.800093	1028.891785	-91.184174	158.310857	549.420863	197.840151	134.275877	901.204844	176.243030	193.147963	790.654592	145.984156	152.102258	775.872780	211.738020	-2.738100	523.414403	-127.246484	127.723215	847.499308	-118.909308	126.487967	731.679507	-64.387624	92.560728	726.904123	-143.748074	165.445232	121.932215	208.239637	220.276308	343.037199	183.636701	197.756317	230.890348	128.961198	191.212058	226.391610	210.499786	-138.015154	100.315256	-110.289753	-11.977512	306.300560	-92.187002	-70.907508	204.475085	-43.430298	-73.950191	203.171132	-123.535070	99.344214	60.089971	149.999105	325.247432	85.960092	131.135975	316.054548	77.817727	206.828858	-214.514320	60.707885	-65.299605	20.479867	55.877705	-35.351814	3.573112	48.697711	-121.227733	123.651225	1452.872508	12.231195	-11.180687	1562.839659	-21.682829	36.214488	1488.787222	194.967950	107.532187	1476.635765	-206.450813	
114	1.130000	-94.564234	1055.534633	3.278548	91.276228	1033.150964	139.819395	114.747091	1027.477132	-90.235583	154.761981	547.104829	197.414637	132.505299	898.085376	177.744942	190.109734	786.702484	147.869228	147.659548	772.149622	213.016108	-8.316605	522.821320	-126.888618	126.309429	845.638737	-118.220747	123.925709	729.914257	-63.566194	89.489234	725.476153	-142.669667	185.047184	120.911485	210.181934	227.177609	344.698545	184.229343	210.746114	231.123773	130.277034	204.664415	226.834310	211.952911	-147.227803	100.640827	-110.240622	-19.513649	305.788172	-92.015920	-79.289968	204.351236	-43.302140	-82.236646	203.142445	-123.464326	121.638349	55.665294	152.694459	346.021495	92.066238	132.217787	337.500769	83.684589	207.986779	-223.885677	61.062965	-65.250485	11.076334	55.742611	-35.326439	-5.868273	48.592470	-121.204894	123.238545	1451.529186	13.621801	-11.492112	1561.547043	-20.465759	35.386624	1487.330942	196.245899	107.625125	1475.585186	-205.014280	
